<svg width="126" height="29" viewBox="0 0 126 29" fill="none" xmlns="http://www.w3.org/2000/svg">
<path fill-rule="evenodd" clip-rule="evenodd" d="M1.75758 0C0.786894 0 0 0.786895 0 1.75758V17.5758C0 18.5464 0.786895 19.3333 1.75758 19.3333H9.66667V27.2424C9.66667 28.2131 10.4536 29 11.4242 29H27.2424C28.2131 29 29 28.2131 29 27.2424V11.4242C29 10.4536 28.2131 9.66667 27.2424 9.66667H19.3333V1.75758C19.3333 0.786894 18.5464 0 17.5758 0H1.75758ZM19.3333 9.66667H11.4242C10.4536 9.66667 9.66667 10.4536 9.66667 11.4242V19.3333H17.5758C18.5464 19.3333 19.3333 18.5464 19.3333 17.5758V9.66667Z" fill="white"/>
<path d="M50.7415 27.8846H44.6739V8.25385H37.3569V2.9H58.0585V8.25385H50.7415V27.8846ZM64.1982 9.32461V13.9646C64.5075 12.7987 64.9121 11.835 65.4118 11.0735C65.9352 10.2883 66.4825 9.75292 67.0536 9.46738C67.6484 9.18184 68.279 9.01528 68.9453 8.96769C69.6115 8.9201 70.254 9.03908 70.8727 9.32461V14.6785C68.9691 13.9409 67.3748 13.8695 66.0899 14.4643C64.8287 15.0354 64.1982 16.0705 64.1982 17.5695V27.8846H58.4875V9.32461H64.1982ZM72.5658 4.32769C72.5658 3.39969 72.899 2.60256 73.5652 1.93631C74.2316 1.27004 75.0286 0.93692 75.9566 0.93692C76.8846 0.93692 77.6818 1.27004 78.348 1.93631C79.0143 2.60256 79.3474 3.39969 79.3474 4.32769C79.3474 5.2319 79.0143 6.02902 78.348 6.71908C77.6818 7.38533 76.8846 7.71846 75.9566 7.71846C75.0286 7.71846 74.2316 7.38533 73.5652 6.71908C72.899 6.02902 72.5658 5.2319 72.5658 4.32769ZM78.812 27.8846H73.1012V9.32461H78.812V27.8846ZM95.4522 14.5V1.47231H101.163V27.8846H95.4522V22.7092C94.9525 24.3987 94.1435 25.7431 93.0251 26.7425C91.9068 27.7418 90.5862 28.2415 89.0633 28.2415C86.8503 28.2415 85.0182 27.3255 83.5667 25.4932C82.1152 23.6372 81.3894 21.341 81.3894 18.6046C81.3894 15.8682 82.1152 13.5839 83.5667 11.7517C85.0182 9.89569 86.8503 8.96769 89.0633 8.96769C90.5862 8.96769 91.9068 9.46738 93.0251 10.4668C94.1435 11.4662 94.9525 12.8105 95.4522 14.5ZM91.2048 23.0305C92.4422 23.0305 93.4534 22.6141 94.2387 21.7812C95.0478 20.9484 95.4522 19.8895 95.4522 18.6046C95.4522 17.3197 95.0478 16.2609 94.2387 15.428C93.4534 14.5951 92.4422 14.1788 91.2048 14.1788C90.134 14.1788 89.218 14.6071 88.4565 15.4637C87.6951 16.2965 87.3143 17.3434 87.3143 18.6046C87.3143 19.8658 87.6951 20.9246 88.4565 21.7812C89.218 22.6141 90.134 23.0305 91.2048 23.0305ZM113.557 8.96769C116.769 8.96769 119.327 10.1336 121.231 12.4655C123.134 14.7975 123.777 17.5338 123.158 20.6748H109.702C110.035 21.5076 110.57 22.1738 111.308 22.6735C112.07 23.1495 112.938 23.3874 113.914 23.3874C115.651 23.3874 116.947 22.6973 117.804 21.3172L122.444 23.4588C121.564 24.9102 120.374 26.0762 118.875 26.9566C117.376 27.8132 115.663 28.2415 113.735 28.2415C110.904 28.2415 108.524 27.3255 106.597 25.4932C104.693 23.6372 103.741 21.341 103.741 18.6046C103.741 15.8682 104.681 13.5839 106.561 11.7517C108.441 9.89569 110.773 8.96769 113.557 8.96769ZM113.557 13.8218C112.724 13.8218 111.974 14.0598 111.308 14.5357C110.642 14.9878 110.13 15.6065 109.773 16.3917H117.376C116.686 14.6785 115.413 13.8218 113.557 13.8218Z" fill="white"/>
</svg>
